<svg width="18" height="15" viewBox="0 0 18 15" fill="none" xmlns="http://www.w3.org/2000/svg">
<circle cx="3.8" cy="13.6001" r="1.4" fill="white"/>
<circle cx="10.04" cy="13.6001" r="1.4" fill="white"/>
<path d="M1.28078 4.94995H12.3192C12.4818 4.94995 12.6012 5.1028 12.5617 5.26058L11.0617 11.2606C11.0339 11.3719 10.9339 11.4499 10.8192 11.4499H2.78077C2.66606 11.4499 2.56606 11.3719 2.53824 11.2606L1.03824 5.26058C0.998794 5.1028 1.11813 4.94995 1.28078 4.94995Z" stroke="white" stroke-width="1.5"/>
<path d="M13.552 2.64455L12.8405 2.40737L12.8369 2.41815L12.8336 2.42904L13.552 2.64455ZM16.0812 2.58008C16.2664 2.95056 16.7169 3.10073 17.0874 2.9155C17.4579 2.73026 17.608 2.27975 17.4228 1.90927L16.0812 2.58008ZM12.8336 2.42904L11.6336 6.429L13.0704 6.86003L14.2704 2.86006L12.8336 2.42904ZM14.2635 2.88173C14.3345 2.66876 14.4658 2.4216 14.6376 2.20686C14.8127 1.98807 14.9929 1.84841 15.1404 1.78692C15.2642 1.73535 15.3543 1.73853 15.4564 1.7915C15.5879 1.85979 15.8196 2.05691 16.0812 2.58008L17.4228 1.90927C17.0844 1.23241 16.6661 0.72951 16.1476 0.460278C15.5996 0.175724 15.0398 0.203884 14.5635 0.402292C14.1111 0.590786 13.7413 0.926108 13.4663 1.2698C13.1881 1.61754 12.9695 2.02036 12.8405 2.40737L14.2635 2.88173Z" fill="white"/>
</svg>
