<?xml version="1.0" encoding="UTF-8"?>
<svg id="_レイヤー_1" data-name="レイヤー 1" xmlns="http://www.w3.org/2000/svg" viewBox="0 0 100 100">
  <defs>
    <style>
      .cls-1 {
        fill: #edc32c;
        stroke-width: 0px;
      }
    </style>
  </defs>
  <path class="cls-1" d="m56.74,76.73h0c-3.72,3.69-9.76,3.69-13.49,0L2.79,36.63c-3.72-3.69-3.72-9.68,0-13.37h0c3.72-3.69,9.76-3.69,13.49,0l40.46,40.1c3.72,3.69,3.72,9.68,0,13.37Z"/>
  <path class="cls-1" d="m43.26,76.73h0c-3.72-3.69-3.72-9.68,0-13.37l40.46-40.1c3.72-3.69,9.76-3.69,13.49,0h0c3.72,3.69,3.72,9.68,0,13.37l-40.46,40.1c-3.72,3.69-9.76,3.69-13.49,0Z"/>
</svg>